<svg width="40" height="40" viewBox="0 0 40 40" fill="none" xmlns="http://www.w3.org/2000/svg">
<path d="M20 36.25C28.9746 36.25 36.25 28.9746 36.25 20C36.25 11.0254 28.9746 3.75 20 3.75C11.0254 3.75 3.75 11.0254 3.75 20C3.75 28.9746 11.0254 36.25 20 36.25Z" stroke="white" stroke-linecap="round" stroke-linejoin="round"/>
<path d="M15.1125 26.1333C15.5668 26.7066 16.152 27.1626 16.8191 27.4627C17.4861 27.7629 18.2155 27.8986 18.9458 27.8583H21.2458C22.2625 27.8583 23.2375 27.4545 23.9564 26.7356C24.6753 26.0167 25.0792 25.0417 25.0792 24.025C25.0792 23.0083 24.6753 22.0333 23.9564 21.3144C23.2375 20.5955 22.2625 20.1917 21.2458 20.1917H18.7542C17.7375 20.1917 16.7625 19.7878 16.0436 19.0689C15.3247 18.35 14.9208 17.375 14.9208 16.3583C14.9208 15.3417 15.3247 14.3666 16.0436 13.6477C16.7625 12.9289 17.7375 12.525 18.7542 12.525H21.0542C22.7792 12.525 23.9292 12.9083 24.8875 14.25M19.9042 10.4167V29.5833" stroke="white" stroke-linecap="round" stroke-linejoin="round"/>
</svg>
