<svg width="30" height="30" viewBox="0 0 30 30" fill="none" xmlns="http://www.w3.org/2000/svg">
<g clip-path="url(#clip0_1_14)">
<path d="M26.6667 5H3.33332C2.8913 5 2.46737 5.17559 2.15481 5.48816C1.84225 5.80072 1.66666 6.22464 1.66666 6.66667V23.3333C1.66666 23.7754 1.84225 24.1993 2.15481 24.5118C2.46737 24.8244 2.8913 25 3.33332 25H26.6667C27.1087 25 27.5326 24.8244 27.8452 24.5118C28.1577 24.1993 28.3333 23.7754 28.3333 23.3333V6.66667C28.3333 6.22464 28.1577 5.80072 27.8452 5.48816C27.5326 5.17559 27.1087 5 26.6667 5ZM26.6667 23.3333H3.33332V6.66667H26.6667V23.3333Z" fill="white"/>
<path d="M7.49999 11.6667H22.5C22.721 11.6667 22.933 11.5789 23.0892 11.4226C23.2455 11.2663 23.3333 11.0543 23.3333 10.8333C23.3333 10.6123 23.2455 10.4004 23.0892 10.2441C22.933 10.0878 22.721 10 22.5 10H7.49999C7.27898 10 7.06701 10.0878 6.91073 10.2441C6.75445 10.4004 6.66666 10.6123 6.66666 10.8333C6.66666 11.0543 6.75445 11.2663 6.91073 11.4226C7.06701 11.5789 7.27898 11.6667 7.49999 11.6667Z" fill="white"/>
<path d="M7.49999 15H22.5C22.721 15 22.933 14.9122 23.0892 14.7559C23.2455 14.5997 23.3333 14.3877 23.3333 14.1667C23.3333 13.9457 23.2455 13.7337 23.0892 13.5774C22.933 13.4211 22.721 13.3333 22.5 13.3333H7.49999C7.27898 13.3333 7.06701 13.4211 6.91073 13.5774C6.75445 13.7337 6.66666 13.9457 6.66666 14.1667C6.66666 14.3877 6.75445 14.5997 6.91073 14.7559C7.06701 14.9122 7.27898 15 7.49999 15Z" fill="white"/>
<path d="M7.49999 18.3333H15.8333C16.0543 18.3333 16.2663 18.2455 16.4226 18.0892C16.5789 17.933 16.6667 17.721 16.6667 17.5C16.6667 17.279 16.5789 17.067 16.4226 16.9107C16.2663 16.7545 16.0543 16.6667 15.8333 16.6667H7.49999C7.27898 16.6667 7.06701 16.7545 6.91073 16.9107C6.75445 17.067 6.66666 17.279 6.66666 17.5C6.66666 17.721 6.75445 17.933 6.91073 18.0892C7.06701 18.2455 7.27898 18.3333 7.49999 18.3333Z" fill="white"/>
</g>
<defs>
<clipPath id="clip0_1_14">
<rect width="30" height="30" fill="white"/>
</clipPath>
</defs>
</svg>
