<svg width="25" height="27" viewBox="0 0 25 27" fill="none" xmlns="http://www.w3.org/2000/svg">
<path d="M20.7444 18.1174C20.1988 18.1194 19.6593 18.2293 19.1582 18.4405C18.6572 18.6516 18.2048 18.9597 17.8284 19.3461L7.95468 14.5104C8.19756 13.7896 8.19756 13.0115 7.95468 12.2907L17.8446 7.36775C18.553 8.09837 19.5137 8.5451 20.5398 8.62112C21.566 8.69715 22.5844 8.39703 23.3971 7.7791C24.2098 7.16117 24.7587 6.26958 24.9372 5.27761C25.1156 4.28565 24.9108 3.26419 24.3626 2.41177C23.8144 1.55934 22.962 0.936857 21.971 0.665296C20.98 0.393735 19.9212 0.492501 19.0004 0.942399C18.0797 1.3923 17.3627 2.16118 16.989 3.09961C16.6152 4.03804 16.6112 5.07897 16.9779 6.02008L7.18519 10.8955C6.65631 10.2624 5.94032 9.80496 5.13537 9.58579C4.33042 9.36663 3.47591 9.39649 2.68898 9.67128C1.90206 9.94607 1.22122 10.4523 0.739819 11.1207C0.258414 11.7891 0 12.5868 0 13.4045C0 14.2222 0.258414 15.02 0.739819 15.6883C1.22122 16.3567 1.90206 16.8629 2.68898 17.1377C3.47591 17.4125 4.33042 17.4424 5.13537 17.2232C5.94032 17.0041 6.65631 16.5466 7.18519 15.9135L16.9536 20.7255C16.7886 21.1593 16.7036 21.6183 16.7025 22.0811C16.7025 22.8651 16.9401 23.6314 17.3851 24.2832C17.8301 24.9351 18.4626 25.4431 19.2026 25.7431C19.9426 26.0431 20.757 26.1216 21.5426 25.9687C22.3282 25.8157 23.0498 25.4382 23.6162 24.8839C24.1826 24.3295 24.5683 23.6233 24.7246 22.8544C24.8808 22.0855 24.8006 21.2885 24.4941 20.5643C24.1876 19.84 23.6685 19.2209 23.0025 18.7854C22.3365 18.3498 21.5535 18.1174 20.7525 18.1174H20.7444ZM20.7444 2.26247C21.225 2.26247 21.6948 2.40195 22.0944 2.66327C22.494 2.9246 22.8054 3.29603 22.9894 3.73059C23.1733 4.16516 23.2214 4.64334 23.1276 5.10468C23.0339 5.56601 22.8024 5.98977 22.4626 6.32237C22.1228 6.65497 21.6898 6.88148 21.2184 6.97324C20.7471 7.06501 20.2585 7.01791 19.8145 6.83791C19.3704 6.65791 18.9909 6.35308 18.7239 5.96198C18.4569 5.57088 18.3144 5.11108 18.3144 4.64071C18.3144 4.00996 18.5704 3.40504 19.0261 2.95904C19.4818 2.51303 20.0999 2.26247 20.7444 2.26247ZM4.11535 15.7391C3.63474 15.7391 3.16494 15.5997 2.76533 15.3383C2.36573 15.077 2.05427 14.7056 1.87036 14.271C1.68644 13.8365 1.63832 13.3583 1.73208 12.8969C1.82584 12.4356 2.05727 12.0118 2.3971 11.6792C2.73694 11.3466 3.16992 11.1201 3.64128 11.0284C4.11265 10.9366 4.60123 10.9837 5.04525 11.1637C5.48927 11.3437 5.86877 11.6485 6.13578 12.0396C6.40279 12.4307 6.5453 12.8905 6.5453 13.3609C6.5453 13.9917 6.28929 14.5966 5.83359 15.0426C5.37788 15.4886 4.75981 15.7391 4.11535 15.7391ZM20.7444 24.4593C20.2638 24.4593 19.794 24.3199 19.3944 24.0585C18.9947 23.7972 18.6833 23.4258 18.4994 22.9912C18.3155 22.5567 18.2673 22.0785 18.3611 21.6171C18.4549 21.1558 18.6863 20.732 19.0261 20.3994C19.366 20.0668 19.7989 19.8403 20.2703 19.7486C20.7417 19.6568 21.2303 19.7039 21.6743 19.8839C22.1183 20.0639 22.4978 20.3687 22.7648 20.7598C23.0318 21.1509 23.1743 21.6107 23.1743 22.0811C23.1743 22.7119 22.9183 23.3168 22.4626 23.7628C22.0069 24.2088 21.3888 24.4593 20.7444 24.4593Z" fill="white"/>
</svg>
